<svg id="レイヤー_1" xmlns="http://www.w3.org/2000/svg" viewBox="0 0 58.7 63.8"><style>.st0{fill:none;stroke-linecap:round;stroke-linejoin:round;stroke:#000;stroke-miterlimit:10}.st0,.st1,.st2{stroke-width:2}.st1,.st2,.st3,.st4{stroke:#000;stroke-miterlimit:10}.st1{fill:none}.st2,.st3,.st4{stroke-linecap:round;stroke-linejoin:round}.st3,.st4{fill:none;stroke-width:3}.st4{stroke-width:2.5}.st5,.st6{stroke-linecap:square}.st5{fill:none;stroke:#000;stroke-width:3;stroke-miterlimit:10}.st6{stroke-linejoin:bevel}.st10,.st11,.st6,.st7{stroke:#000;stroke-miterlimit:10}.st6,.st7{fill:none;stroke-width:3}.st8{fill:none}.st8,.st9{stroke:#000;stroke-miterlimit:10}.st10,.st11,.st8,.st9{stroke-width:2}.st8,.st9{stroke-linecap:square}.st10,.st9{fill:#fff}.st10,.st11{stroke-linecap:round}.st11{fill:none}</style><path class="st0" d="M40.7-119.6h5.9c3 0 5.5 2.5 5.5 5.5v45.7c0 3-2.5 5.5-5.5 5.5H.8c-3 0-5.5-2.5-5.5-5.5v-45.7c0-3 2.5-5.5 5.5-5.5h5.9m11.3 0h11.3"/><path class="st1" d="M-4.7-105.6H52"/><path class="st2" d="M12.3-125.3v11.4M35-125.3v11.4"/><path class="st0" d="M22.3-88.4l2.8-2.9v14.2m6.8 134.8H6c-2.8 0-5-2.2-5-5V11.1c0-2.8 2.2-5 5-5h5.3m30.9.1h5.3c2.8 0 5 2.2 5 5v25.9M21.6 6.2h10.3"/><path class="st1" d="M1 21.6h51.5"/><path class="st2" d="M16.5 1v10.3M37.1 1v10.3m10.3 37.8V56M44 52.5h6.8"/><path class="st0" d="M25.5 34.5l2.6-2.6v12.9"/><circle class="st0" cx="47.4" cy="52.5" r="10.3"/><circle class="st3" cx="860.1" cy="346.7" r="17"/><path class="st3" d="M831.8 411.8V392c0-15.7 12.7-28.3 28.3-28.3 15.7 0 28.3 12.7 28.3 28.3v19.8"/><circle class="st3" cx="894.2" cy="358" r="10.2"/><path class="st3" d="M888.5 369.2c1.8-.6 3.7-1 5.7-1 9.4 0 17 7.6 17 17v3.4m-27.9-16.5c1.5-1.3 3.3-2.2 5.2-2.9m-6.8 4.4c.5-.5 1-1.1 1.6-1.5"/><circle class="st3" cx="826.1" cy="358" r="10.2"/><path class="st3" d="M831.8 369.2c2.6.9 4.9 2.5 6.8 4.4m-29.5 15v-3.4c0-9.4 7.6-17 17-17 2 0 3.9.3 5.7 1"/><circle class="st3" cx="860.1" cy="360.7" r="58.5"/><circle class="st0" cx="139.9" cy="-101.1" r="8.5"/><path class="st0" d="M125.7-68.5v-9.9c0-7.8 6.3-14.2 14.2-14.2 7.8 0 14.2 6.3 14.2 14.2v9.9"/><circle class="st0" cx="156.9" cy="-95.4" r="5.1"/><path class="st0" d="M154.1-89.8c.9-.3 1.8-.5 2.8-.5 4.7 0 8.5 3.8 8.5 8.5v1.7m-13.9-8.3c.8-.6 1.6-1.1 2.6-1.5m-3.4 2.3l.8-.8"/><circle class="st0" cx="122.9" cy="-95.4" r="5.1"/><path class="st0" d="M125.7-89.8c1.3.5 2.5 1.2 3.4 2.2m-14.7 7.5v-1.7c0-4.7 3.8-8.5 8.5-8.5 1 0 2 .2 2.8.5"/><circle class="st0" cx="139.9" cy="-94.1" r="29.2"/><circle class="st0" cx="144.6" cy="24.9" r="8.5"/><path class="st0" d="M130.4 57.5v-9.9c0-7.8 6.3-14.2 14.2-14.2 7.8 0 14.2 6.3 14.2 14.2v9.9"/><circle class="st0" cx="144.6" cy="31.9" r="29.2"/><circle class="st3" cx="1015.3" cy="326.6" r="17"/><path class="st3" d="M986.9 391.8V372c0-15.7 12.7-28.3 28.3-28.3 15.7 0 28.3 12.7 28.3 28.3v19.8"/><circle class="st3" cx="1049.3" cy="338" r="10.2"/><path class="st3" d="M1043.6 349.1c1.8-.6 3.7-1 5.7-1 9.4 0 17 7.6 17 17v3.4m-27.8-16.4c1.5-1.3 3.3-2.2 5.2-2.9m-6.8 4.4c.5-.5 1-1.1 1.6-1.5"/><circle class="st3" cx="981.3" cy="338" r="10.2"/><path class="st3" d="M987 349.2c2.6.9 4.9 2.5 6.8 4.4m-29.5 15v-3.4c0-9.4 7.6-17 17-17 2 0 3.9.3 5.7 1"/><circle cx="1031" cy="508.7" r="58.5"/><circle class="st4" cx="831.8" cy="506.8" r="8.5"/><path class="st4" d="M844.6 528c0-7-5.7-12.8-12.8-12.8-7 0-12.8 5.7-12.8 12.8"/><circle class="st4" cx="848.8" cy="513.9" r="5.7"/><path class="st4" d="M857.3 528c0-4.7-3.8-8.5-8.5-8.5-2.3 0-4.3.9-5.8 2.3"/><circle class="st4" cx="814.8" cy="513.9" r="5.7"/><path class="st4" d="M820.6 521.9c-1.5-1.4-3.6-2.3-5.8-2.3-4.7 0-8.5 3.8-8.5 8.5"/><path class="st5" d="M839.3 256.9h45.4v45.4h-45.4zm34-5.7v11.3m-22.7-11.3v11.3"/><path class="st6" d="M857.1 282.7l5.7-5.7v17m-23.5-25.8h45.3"/><path class="st5" d="M895.9 256.9h45.4v45.4h-45.4zm11.4 11.3H930m-22.7 11.3H930m-22.7 11.4h11.3m79.4-34h-39.7v45.3H998"/><path class="st5" d="M986.7 268.2l11.3 11.3-11.3 11.4"/><path class="st7" d="M969.7 279.5H998"/><path class="st8" d="M276.1-65.8h-40c-1.6 0-2.9-1.3-2.9-2.9v-47.1c0-1.6 1.3-2.9 2.9-2.9h40c1.6 0 2.9 1.3 2.9 2.9v47.1c0 1.6-1.3 2.9-2.9 2.9z"/><path class="st9" d="M260.8-114.8h-9.6c-1.6 0-2.8-1.3-2.8-2.8v-2c0-1.6 1.3-2.8 2.8-2.8h9.6c1.6 0 2.8 1.3 2.8 2.8v2c.1 1.5-1.2 2.8-2.8 2.8z"/><path class="st10" d="M244.7-95.5h22.8M244.7-81h22.8"/><path class="st0" d="M271.2 14.9h14.6c1.3 0 2.4 1.1 2.4 2.4v34.8c0 1.3-1.1 2.4-2.4 2.4H234c-1.3 0-2.4-1.1-2.4-2.4V17.4c0-1.3 1.1-2.4 2.4-2.4h14.6c0-5.7 5.7-5.7 5.7-5.7h11.3c5.6 0 5.6 5.6 5.6 5.6z"/><circle class="st11" cx="259.9" cy="34.8" r="8.5"/><g><path class="st0" d="M508.7-65.7h-40.3c-1.4 0-2.5-1.1-2.5-2.5v-29c0-1.4 1.1-2.5 2.5-2.5h40.3c1.4 0 2.5 1.1 2.5 2.5v29c0 1.3-1.1 2.5-2.5 2.5zm-35.3-34.1v-7.6c0-8.3 6.8-15.1 15.1-15.1s15.1 6.8 15.1 15.1v7.6m-20.7 17h11.3"/></g><g><circle class="st0" cx="366.8" cy="-99.6" r="17"/><path class="st0" d="M378.8-87.6l16.1 16"/></g><g><path class="st0" d="M397.9 9.2h-45.4v45.4h45.4"/><path class="st0" d="M386.5 20.6l11.4 11.3-11.4 11.4m11.4-11.4h-28.4"/></g></svg>