<svg id="レイヤー_1" xmlns="http://www.w3.org/2000/svg" viewBox="0 0 58.7 64.4"><style>.st0{fill:none;stroke-linecap:round;stroke-linejoin:round;stroke:#000;stroke-miterlimit:10}.st0,.st1,.st2{stroke-width:2}.st1,.st2,.st3,.st4{stroke:#000;stroke-miterlimit:10}.st1{fill:none}.st2,.st3,.st4{stroke-linecap:round;stroke-linejoin:round}.st3,.st4{fill:none;stroke-width:3}.st4{stroke-width:2.5}.st5,.st6{stroke-linecap:square}.st5{fill:none;stroke:#000;stroke-width:3;stroke-miterlimit:10}.st6{stroke-linejoin:bevel}.st10,.st11,.st6,.st7{stroke:#000;stroke-miterlimit:10}.st6,.st7{fill:none;stroke-width:3}.st8{fill:none}.st8,.st9{stroke:#000;stroke-miterlimit:10}.st10,.st11,.st8,.st9{stroke-width:2}.st8,.st9{stroke-linecap:square}.st10,.st9{fill:#fff}.st10,.st11{stroke-linecap:round}.st11{fill:none}</style><path class="st0" d="M46.4 6.7h5.9c3 0 5.5 2.5 5.5 5.5v45.7c0 3-2.5 5.5-5.5 5.5H6.5c-3 0-5.5-2.5-5.5-5.5V12.2c0-3 2.5-5.5 5.5-5.5h5.9m11.3 0H35"/><path class="st1" d="M1 20.7h56.7"/><path class="st2" d="M18 1v11.3M40.7 1v11.3"/><path class="st0" d="M27.9 37.9l2.9-2.9v14.2M37.6 184H11.7c-2.8 0-5-2.2-5-5v-41.6c0-2.8 2.2-5 5-5H17m30.9 0h5.3c2.8 0 5 2.2 5 5v25.9m-30.9-30.9h10.3"/><path class="st1" d="M6.7 147.9h51.5"/><path class="st2" d="M22.1 127.3v10.3m20.6-10.3v10.3m10.4 37.8v6.8m-3.5-3.4h6.9"/><path class="st0" d="M31.2 160.8l2.5-2.6v12.9"/><circle class="st0" cx="53.1" cy="178.8" r="10.3"/><circle class="st3" cx="865.8" cy="473" r="17"/><path class="st3" d="M837.5 538.1v-19.8c0-15.7 12.7-28.3 28.3-28.3 15.7 0 28.3 12.7 28.3 28.3v19.8"/><circle class="st3" cx="899.8" cy="484.3" r="10.2"/><path class="st3" d="M894.2 495.5c1.8-.6 3.7-1 5.7-1 9.4 0 17 7.6 17 17v3.4M889 498.4c1.5-1.3 3.3-2.2 5.2-2.9m-6.8 4.4c.5-.5 1-1.1 1.6-1.5"/><circle class="st3" cx="831.8" cy="484.3" r="10.2"/><path class="st3" d="M837.5 495.5c2.6.9 4.9 2.5 6.8 4.4m-29.5 15v-3.4c0-9.4 7.6-17 17-17 2 0 3.9.3 5.7 1"/><circle class="st3" cx="865.8" cy="487" r="58.5"/><circle class="st0" cx="145.6" cy="25.2" r="8.5"/><path class="st0" d="M131.4 57.8v-9.9c0-7.8 6.3-14.2 14.2-14.2 7.8 0 14.2 6.3 14.2 14.2v9.9"/><circle class="st0" cx="162.6" cy="30.8" r="5.1"/><path class="st0" d="M159.7 36.4c.9-.3 1.8-.5 2.8-.5 4.7 0 8.5 3.8 8.5 8.5v1.7m-13.8-8.2c.8-.6 1.6-1.1 2.6-1.5m-3.4 2.3l.8-.8"/><circle class="st0" cx="128.6" cy="30.8" r="5.1"/><path class="st0" d="M131.4 36.4c1.3.5 2.5 1.2 3.4 2.2m-14.7 7.6v-1.7c0-4.7 3.8-8.5 8.5-8.5 1 0 2 .2 2.8.5"/><circle class="st0" cx="145.6" cy="32.2" r="29.2"/><circle class="st0" cx="150.3" cy="151.2" r="8.5"/><path class="st0" d="M136.1 183.8v-9.9c0-7.8 6.3-14.2 14.2-14.2 7.8 0 14.2 6.3 14.2 14.2v9.9"/><circle class="st0" cx="150.3" cy="158.2" r="29.2"/><circle class="st3" cx="1021" cy="452.9" r="17"/><path class="st3" d="M992.6 518.1v-19.8c0-15.7 12.7-28.3 28.3-28.3 15.7 0 28.3 12.7 28.3 28.3v19.8"/><circle class="st3" cx="1055" cy="464.3" r="10.2"/><path class="st3" d="M1049.3 475.4c1.8-.6 3.7-1 5.7-1 9.4 0 17 7.6 17 17v3.4m-27.8-16.5c1.5-1.3 3.3-2.2 5.2-2.9m-6.9 4.5c.5-.5 1-1.1 1.6-1.5"/><circle class="st3" cx="986.9" cy="464.3" r="10.2"/><path class="st3" d="M992.6 475.4c2.6.9 4.9 2.5 6.8 4.4m-29.5 15.1v-3.4c0-9.4 7.6-17 17-17 2 0 3.9.3 5.7 1"/><circle cx="1036.7" cy="635" r="58.5"/><circle class="st4" cx="837.5" cy="633.1" r="8.5"/><path class="st4" d="M850.2 654.3c0-7-5.7-12.8-12.8-12.8-7 0-12.8 5.7-12.8 12.8"/><circle class="st4" cx="854.5" cy="640.1" r="5.7"/><path class="st4" d="M863 654.3c0-4.7-3.8-8.5-8.5-8.5-2.3 0-4.3.9-5.8 2.3"/><circle class="st4" cx="820.5" cy="640.1" r="5.7"/><path class="st4" d="M826.3 648.1c-1.5-1.4-3.6-2.3-5.8-2.3-4.7 0-8.5 3.8-8.5 8.5"/><path class="st5" d="M844.9 383.1h45.4v45.4h-45.4zm34-5.6v11.3m-22.6-11.3v11.3"/><path class="st6" d="M862.8 409l5.6-5.7v17m-23.5-25.8h45.4"/><path class="st5" d="M901.6 383.1H947v45.4h-45.4zm11.4 11.4h22.6M913 405.8h22.6M913 417.1h11.3m79.4-34H964v45.4h39.7"/><path class="st5" d="M992.3 394.5l11.4 11.3-11.4 11.3"/><path class="st7" d="M975.3 405.8h28.4"/><path class="st8" d="M281.8 60.5h-40c-1.6 0-2.9-1.3-2.9-2.9v-47c0-1.6 1.3-2.9 2.9-2.9h40c1.6 0 2.9 1.3 2.9 2.9v47.1c-.1 1.5-1.3 2.8-2.9 2.8z"/><path class="st9" d="M266.5 11.5h-9.6c-1.6 0-2.8-1.3-2.8-2.8v-2c0-1.6 1.3-2.8 2.8-2.8h9.6c1.6 0 2.8 1.3 2.8 2.8v2c0 1.5-1.2 2.8-2.8 2.8z"/><path class="st10" d="M250.4 30.7h22.8m-22.8 14.6h22.8"/><path class="st0" d="M276.9 141.2h14.6c1.3 0 2.4 1.1 2.4 2.4v34.8c0 1.3-1.1 2.4-2.4 2.4h-51.8c-1.3 0-2.4-1.1-2.4-2.4v-34.8c0-1.3 1.1-2.4 2.4-2.4h14.6c0-5.7 5.7-5.7 5.7-5.7h11.3c5.6 0 5.6 5.7 5.6 5.7z"/><circle class="st11" cx="265.6" cy="161" r="8.5"/><g><path class="st0" d="M514.4 60.5h-40.3c-1.4 0-2.5-1.1-2.5-2.5V29c0-1.4 1.1-2.5 2.5-2.5h40.3c1.4 0 2.5 1.1 2.5 2.5v29c0 1.4-1.1 2.5-2.5 2.5z"/><path class="st0" d="M479.1 26.5V19c0-8.3 6.8-15.1 15.1-15.1s15.1 6.8 15.1 15.1v7.6m-20.7 16.9h11.3"/></g><g><circle class="st0" cx="372.5" cy="26.7" r="17"/><path class="st0" d="M384.5 38.7l16 16"/></g><g><path class="st0" d="M403.5 135.5h-45.3v45.4h45.3"/><path class="st0" d="M392.2 146.9l11.3 11.3-11.3 11.3m11.3-11.3h-28.3"/></g></svg>