<svg id="レイヤー_1" xmlns="http://www.w3.org/2000/svg" viewBox="0 0 60.5 60.5"><style>.st0{fill:none;stroke-linecap:round;stroke-linejoin:round;stroke:#000;stroke-miterlimit:10}.st0,.st1,.st2{stroke-width:2}.st1,.st2,.st3,.st4{stroke:#000;stroke-miterlimit:10}.st1{fill:none}.st2,.st3,.st4{stroke-linecap:round;stroke-linejoin:round}.st3,.st4{fill:none;stroke-width:3}.st4{stroke-width:2.5}.st5,.st6{stroke-linecap:square}.st5{fill:none;stroke:#000;stroke-width:3;stroke-miterlimit:10}.st6{stroke-linejoin:bevel}.st10,.st11,.st6,.st7{stroke:#000;stroke-miterlimit:10}.st6,.st7{fill:none;stroke-width:3}.st8{fill:none}.st8,.st9{stroke:#000;stroke-miterlimit:10}.st10,.st11,.st8,.st9{stroke-width:2}.st8,.st9{stroke-linecap:square}.st10,.st9{fill:#fff}.st10,.st11{stroke-linecap:round}.st11{fill:none}</style><path class="st0" d="M-73.7-121.3h5.9c3 0 5.5 2.5 5.5 5.5v45.7c0 3-2.5 5.5-5.5 5.5h-45.7c-3 0-5.5-2.5-5.5-5.5v-45.7c0-3 2.5-5.5 5.5-5.5h5.9m11.2 0H-85"/><path class="st1" d="M-119.1-107.3h56.7"/><path class="st2" d="M-102-127v11.4m22.6-11.4v11.4"/><path class="st0" d="M-92.1-90.1l2.8-2.8v14.1M-82.5 56h-25.9c-2.8 0-5-2.2-5-5V9.5c0-2.8 2.2-5 5-5h5.3m30.9 0h5.3c2.8 0 5 2.2 5 5v25.9M-92.8 4.5h10.3"/><path class="st1" d="M-113.4 19.9h51.6"/><path class="st2" d="M-97.9-.7V9.6M-77.3-.7V9.6M-67 47.4v6.9m-3.4-3.4h6.8"/><path class="st0" d="M-88.9 32.8l2.6-2.6v12.9"/><circle class="st0" cx="-67" cy="50.9" r="10.3"/><circle class="st3" cx="745.8" cy="345" r="17"/><path class="st3" d="M717.4 410.2v-19.8c0-15.7 12.7-28.3 28.3-28.3 15.7 0 28.3 12.7 28.3 28.3v19.8"/><circle class="st3" cx="779.8" cy="356.3" r="10.2"/><path class="st3" d="M774.1 367.5c1.8-.6 3.7-1 5.7-1 9.4 0 17 7.6 17 17v3.4M769 370.4c1.5-1.3 3.3-2.2 5.2-2.9m-6.9 4.5c.5-.5 1-1.1 1.6-1.5"/><circle class="st3" cx="711.7" cy="356.3" r="10.2"/><path class="st3" d="M717.4 367.5c2.6.9 4.9 2.5 6.8 4.4M694.7 387v-3.4c0-9.4 7.6-17 17-17 2 0 3.9.3 5.7 1"/><circle class="st3" cx="745.8" cy="359" r="58.5"/><circle class="st0" cx="25.5" cy="-102.8" r="8.5"/><path class="st0" d="M11.3-70.2v-9.9c0-7.8 6.3-14.2 14.2-14.2 7.8 0 14.2 6.3 14.2 14.2v9.9"/><circle class="st0" cx="42.5" cy="-97.1" r="5.1"/><path class="st0" d="M39.7-91.5c.9-.3 1.8-.5 2.8-.5 4.7 0 8.5 3.8 8.5 8.5v1.7m-13.9-8.3c.8-.6 1.6-1.1 2.6-1.5m-3.4 2.3l.8-.8"/><circle class="st0" cx="8.5" cy="-97.1" r="5.1"/><path class="st0" d="M11.3-91.5c1.3.5 2.5 1.2 3.4 2.2M0-81.8v-1.7C0-88.2 3.8-92 8.5-92c1 0 2 .2 2.8.5"/><circle class="st0" cx="25.5" cy="-95.8" r="29.2"/><circle class="st0" cx="30.2" cy="23.2" r="8.5"/><path class="st0" d="M16.1 55.8v-9.9c0-7.8 6.3-14.2 14.2-14.2 7.8 0 14.2 6.3 14.2 14.2v9.9"/><circle class="st0" cx="30.2" cy="30.2" r="29.2"/><circle class="st3" cx="900.9" cy="325" r="17"/><path class="st3" d="M872.6 390.1v-19.8c0-15.7 12.7-28.3 28.3-28.3 15.7 0 28.3 12.7 28.3 28.3v19.8"/><circle class="st3" cx="934.9" cy="336.3" r="10.2"/><path class="st3" d="M929.3 347.5c1.8-.6 3.7-1 5.7-1 9.4 0 17 7.6 17 17v3.4m-27.9-16.5c1.5-1.3 3.3-2.2 5.2-2.9m-6.8 4.4c.5-.5 1-1.1 1.6-1.5"/><circle class="st3" cx="866.9" cy="336.3" r="10.2"/><path class="st3" d="M872.6 347.5c2.6.9 4.9 2.5 6.8 4.4m-29.5 15v-3.4c0-9.4 7.6-17 17-17 2 0 3.9.3 5.7 1"/><circle cx="916.6" cy="507" r="58.5"/><circle class="st4" cx="717.4" cy="505.1" r="8.5"/><path class="st4" d="M730.2 526.4c0-7-5.7-12.8-12.8-12.8-7 0-12.8 5.7-12.8 12.8"/><circle class="st4" cx="734.4" cy="512.2" r="5.7"/><path class="st4" d="M742.9 526.4c0-4.7-3.8-8.5-8.5-8.5-2.3 0-4.3.9-5.8 2.3"/><circle class="st4" cx="700.4" cy="512.2" r="5.7"/><path class="st4" d="M706.3 520.2c-1.5-1.4-3.6-2.3-5.8-2.3-4.7 0-8.5 3.8-8.5 8.5"/><path class="st5" d="M724.9 255.2h45.4v45.4h-45.4zm34-5.7v11.3m-22.7-11.3v11.3"/><path class="st6" d="M742.7 281l5.7-5.7v17.1m-23.5-25.9h45.3"/><path class="st5" d="M781.6 255.2H827v45.4h-45.4zm11.3 11.3h22.7m-22.7 11.4h22.7m-22.7 11.3h11.3m79.4-34h-39.7v45.3h39.7"/><path class="st5" d="M872.3 266.5l11.3 11.4-11.3 11.3"/><path class="st7" d="M855.3 277.9h28.3"/><path class="st8" d="M161.7-67.5h-40c-1.6 0-2.9-1.3-2.9-2.9v-47.1c0-1.6 1.3-2.9 2.9-2.9h40c1.6 0 2.9 1.3 2.9 2.9v47.1c0 1.6-1.3 2.9-2.9 2.9z"/><path class="st9" d="M146.4-116.5h-9.6c-1.6 0-2.8-1.3-2.8-2.8v-2c0-1.6 1.3-2.8 2.8-2.8h9.6c1.6 0 2.8 1.3 2.8 2.8v2c.1 1.6-1.2 2.8-2.8 2.8z"/><path class="st10" d="M130.3-97.2h22.9m-22.9 14.5h22.9"/><path class="st0" d="M156.9 13.2h14.6c1.3 0 2.4 1.1 2.4 2.4v34.8c0 1.3-1.1 2.4-2.4 2.4h-51.8c-1.3 0-2.4-1.1-2.4-2.4V15.7c0-1.3 1.1-2.4 2.4-2.4h14.6c0-5.7 5.7-5.7 5.7-5.7h11.3c5.6 0 5.6 5.6 5.6 5.6z"/><circle class="st11" cx="145.5" cy="33.1" r="8.5"/><g><path class="st0" d="M394.3-67.4H354c-1.4 0-2.5-1.1-2.5-2.5v-29c0-1.4 1.1-2.5 2.5-2.5h40.3c1.4 0 2.5 1.1 2.5 2.5v29c.1 1.3-1.1 2.5-2.5 2.5zm-35.2-34v-7.6c0-8.3 6.8-15.1 15.1-15.1s15.1 6.8 15.1 15.1v7.6m-20.8 17h11.3"/></g><g><circle class="st0" cx="252.4" cy="-101.3" r="17"/><path class="st0" d="M264.5-89.3l16 16.1"/></g><g><path class="st0" d="M283.5 7.6h-45.4v45.3h45.4"/><path class="st0" d="M272.1 18.9l11.4 11.3-11.4 11.4m11.4-11.4h-28.4"/></g></svg>