<?xml version="1.0" encoding="utf-8"?>
<!-- Generator: Adobe Illustrator 19.1.0, SVG Export Plug-In . SVG Version: 6.00 Build 0)  -->
<svg version="1.1" id="レイヤー_1" xmlns="http://www.w3.org/2000/svg" xmlns:xlink="http://www.w3.org/1999/xlink" x="0px"
	 y="0px" viewBox="0 0 60.5 60.5" style="enable-background:new 0 0 60.5 60.5;" xml:space="preserve">
<style type="text/css">
	.st0{fill:none;stroke:#000000;stroke-width:2;stroke-linecap:round;stroke-linejoin:round;stroke-miterlimit:10;}
	.st1{fill:none;stroke:#000000;stroke-width:2;stroke-miterlimit:10;}
	.st2{stroke:#000000;stroke-width:2;stroke-linecap:round;stroke-linejoin:round;stroke-miterlimit:10;}
	.st3{fill:none;stroke:#000000;stroke-width:3;stroke-linecap:round;stroke-linejoin:round;stroke-miterlimit:10;}
	.st4{fill:none;stroke:#000000;stroke-width:2.5;stroke-linecap:round;stroke-linejoin:round;stroke-miterlimit:10;}
	.st5{fill:none;stroke:#000000;stroke-width:3;stroke-linecap:square;stroke-miterlimit:10;}
	.st6{fill:none;stroke:#000000;stroke-width:3;stroke-linecap:square;stroke-linejoin:bevel;stroke-miterlimit:10;}
	.st7{fill:none;stroke:#000000;stroke-width:3;stroke-miterlimit:10;}
	.st8{fill:none;stroke:#000000;stroke-width:2;stroke-linecap:square;stroke-miterlimit:10;}
	.st9{fill:#FFFFFF;stroke:#000000;stroke-width:2;stroke-linecap:square;stroke-miterlimit:10;}
	.st10{fill:#FFFFFF;stroke:#000000;stroke-width:2;stroke-linecap:round;stroke-miterlimit:10;}
	.st11{fill:none;stroke:#000000;stroke-width:2;stroke-linecap:round;stroke-miterlimit:10;}
</style>
<g>
	<path class="st0" d="M-73.7-121.3h5.9c3,0,5.5,2.5,5.5,5.5v45.7c0,3-2.5,5.5-5.5,5.5h-45.7c-3,0-5.5-2.5-5.5-5.5v-45.7
		c0-3,2.5-5.5,5.5-5.5h5.9"/>
	<line class="st0" x1="-96.4" y1="-121.3" x2="-85" y2="-121.3"/>
	<line class="st1" x1="-119.1" y1="-107.3" x2="-62.4" y2="-107.3"/>
	<line class="st2" x1="-102" y1="-127" x2="-102" y2="-115.6"/>
	<line class="st2" x1="-79.4" y1="-127" x2="-79.4" y2="-115.6"/>
	<polyline class="st0" points="-92.1,-90.1 -89.3,-92.9 -89.3,-78.8 	"/>
</g>
<g>
	<path class="st0" d="M-82.5,56h-25.9c-2.8,0-5-2.2-5-5V9.5c0-2.8,2.2-5,5-5h5.3"/>
	<path class="st0" d="M-72.2,4.5h5.3c2.8,0,5,2.2,5,5v25.9"/>
	<line class="st0" x1="-92.8" y1="4.5" x2="-82.5" y2="4.5"/>
	<line class="st1" x1="-113.4" y1="19.9" x2="-61.8" y2="19.9"/>
	<line class="st2" x1="-97.9" y1="-0.7" x2="-97.9" y2="9.6"/>
	<line class="st2" x1="-77.3" y1="-0.7" x2="-77.3" y2="9.6"/>
	<g>
		<line class="st2" x1="-67" y1="47.4" x2="-67" y2="54.3"/>
		<line class="st2" x1="-70.4" y1="50.9" x2="-63.6" y2="50.9"/>
	</g>
	<polyline class="st0" points="-88.9,32.8 -86.3,30.2 -86.3,43.1 	"/>
	<circle class="st0" cx="-67" cy="50.9" r="10.3"/>
</g>
<circle class="st3" cx="745.8" cy="345" r="17"/>
<path class="st3" d="M717.4,410.2v-19.8c0-15.7,12.7-28.3,28.3-28.3c15.7,0,28.3,12.7,28.3,28.3l0,19.8"/>
<circle class="st3" cx="779.8" cy="356.3" r="10.2"/>
<path class="st3" d="M774.1,367.5c1.8-0.6,3.7-1,5.7-1c9.4,0,17,7.6,17,17v3.4"/>
<path class="st3" d="M769,370.4c1.5-1.3,3.3-2.2,5.2-2.9"/>
<path class="st3" d="M767.3,372c0.5-0.5,1-1.1,1.6-1.5"/>
<circle class="st3" cx="711.7" cy="356.3" r="10.2"/>
<path class="st3" d="M717.4,367.5c2.6,0.9,4.9,2.5,6.8,4.4"/>
<path class="st3" d="M694.7,387v-3.4c0-9.4,7.6-17,17-17c2,0,3.9,0.3,5.7,1"/>
<circle class="st3" cx="745.8" cy="359" r="58.5"/>
<g>
	<circle class="st0" cx="25.5" cy="-102.8" r="8.5"/>
	<path class="st0" d="M11.3-70.2v-9.9c0-7.8,6.3-14.2,14.2-14.2c7.8,0,14.2,6.3,14.2,14.2l0,9.9"/>
	<circle class="st0" cx="42.5" cy="-97.1" r="5.1"/>
	<path class="st0" d="M39.7-91.5c0.9-0.3,1.8-0.5,2.8-0.5c4.7,0,8.5,3.8,8.5,8.5v1.7"/>
	<path class="st0" d="M37.1-90.1c0.8-0.6,1.6-1.1,2.6-1.5"/>
	<path class="st0" d="M36.3-89.3c0.3-0.3,0.5-0.5,0.8-0.8"/>
	<circle class="st0" cx="8.5" cy="-97.1" r="5.1"/>
	<path class="st0" d="M11.3-91.5c1.3,0.5,2.5,1.2,3.4,2.2"/>
	<path class="st0" d="M0-81.8l0-1.7C0-88.2,3.8-92,8.5-92c1,0,2,0.2,2.8,0.5"/>
	<circle class="st0" cx="25.5" cy="-95.8" r="29.2"/>
</g>
<g>
	<circle class="st0" cx="30.2" cy="23.2" r="8.5"/>
	<path class="st0" d="M16.1,55.8v-9.9c0-7.8,6.3-14.2,14.2-14.2c7.8,0,14.2,6.3,14.2,14.2l0,9.9"/>
	<circle class="st0" cx="30.2" cy="30.2" r="29.2"/>
</g>
<circle class="st3" cx="900.9" cy="325" r="17"/>
<path class="st3" d="M872.6,390.1v-19.8c0-15.7,12.7-28.3,28.3-28.3c15.7,0,28.3,12.7,28.3,28.3l0,19.8"/>
<circle class="st3" cx="934.9" cy="336.3" r="10.2"/>
<path class="st3" d="M929.3,347.5c1.8-0.6,3.7-1,5.7-1c9.4,0,17,7.6,17,17v3.4"/>
<path class="st3" d="M924.1,350.4c1.5-1.3,3.3-2.2,5.2-2.9"/>
<path class="st3" d="M922.5,351.9c0.5-0.5,1-1.1,1.6-1.5"/>
<circle class="st3" cx="866.9" cy="336.3" r="10.2"/>
<path class="st3" d="M872.6,347.5c2.6,0.9,4.9,2.5,6.8,4.4"/>
<path class="st3" d="M849.9,366.9v-3.4c0-9.4,7.6-17,17-17c2,0,3.9,0.3,5.7,1"/>
<circle cx="916.6" cy="507" r="58.5"/>
<circle class="st4" cx="717.4" cy="505.1" r="8.5"/>
<path class="st4" d="M730.2,526.4c0-7-5.7-12.8-12.8-12.8c-7,0-12.8,5.7-12.8,12.8"/>
<circle class="st4" cx="734.4" cy="512.2" r="5.7"/>
<path class="st4" d="M742.9,526.4c0-4.7-3.8-8.5-8.5-8.5c-2.3,0-4.3,0.9-5.8,2.3"/>
<circle class="st4" cx="700.4" cy="512.2" r="5.7"/>
<path class="st4" d="M706.3,520.2c-1.5-1.4-3.6-2.3-5.8-2.3c-4.7,0-8.5,3.8-8.5,8.5"/>
<rect x="724.9" y="255.2" class="st5" width="45.4" height="45.4"/>
<line class="st5" x1="758.9" y1="249.5" x2="758.9" y2="260.8"/>
<line class="st5" x1="736.2" y1="249.5" x2="736.2" y2="260.8"/>
<polyline class="st6" points="742.7,281 748.4,275.3 748.4,292.4 "/>
<line class="st6" x1="724.9" y1="266.5" x2="770.2" y2="266.5"/>
<rect x="781.6" y="255.2" class="st5" width="45.4" height="45.4"/>
<line class="st5" x1="792.9" y1="266.5" x2="815.6" y2="266.5"/>
<line class="st5" x1="792.9" y1="277.9" x2="815.6" y2="277.9"/>
<line class="st5" x1="792.9" y1="289.2" x2="804.2" y2="289.2"/>
<polyline class="st5" points="883.6,255.2 843.9,255.2 843.9,300.5 883.6,300.5 "/>
<g>
	<polyline class="st5" points="872.3,266.5 883.6,277.9 872.3,289.2 	"/>
	<line class="st7" x1="855.3" y1="277.9" x2="883.6" y2="277.9"/>
</g>
<g>
	<path class="st8" d="M161.7-67.5h-40c-1.6,0-2.9-1.3-2.9-2.9v-47.1c0-1.6,1.3-2.9,2.9-2.9h40c1.6,0,2.9,1.3,2.9,2.9v47.1
		C164.6-68.8,163.3-67.5,161.7-67.5z"/>
	<path class="st9" d="M146.4-116.5h-9.6c-1.6,0-2.8-1.3-2.8-2.8v-2c0-1.6,1.3-2.8,2.8-2.8h9.6c1.6,0,2.8,1.3,2.8,2.8v2
		C149.3-117.7,148-116.5,146.4-116.5z"/>
	<line class="st10" x1="130.3" y1="-97.2" x2="153.2" y2="-97.2"/>
	<line class="st10" x1="130.3" y1="-82.7" x2="153.2" y2="-82.7"/>
</g>
<g>
	<path class="st0" d="M156.9,13.2h14.6c1.3,0,2.4,1.1,2.4,2.4v34.8c0,1.3-1.1,2.4-2.4,2.4h-51.8c-1.3,0-2.4-1.1-2.4-2.4V15.7
		c0-1.3,1.1-2.4,2.4-2.4h14.6c0-5.7,5.7-5.7,5.7-5.7s5.7,0,11.3,0C156.9,7.6,156.9,13.2,156.9,13.2z"/>
	<circle class="st11" cx="145.5" cy="33.1" r="8.5"/>
</g>
<g>
	<path class="st0" d="M394.3-67.4H354c-1.4,0-2.5-1.1-2.5-2.5v-29c0-1.4,1.1-2.5,2.5-2.5h40.3c1.4,0,2.5,1.1,2.5,2.5v29
		C396.9-68.6,395.7-67.4,394.3-67.4z"/>
	<path class="st0" d="M359.1-101.4v-7.6c0-8.3,6.8-15.1,15.1-15.1c8.3,0,15.1,6.8,15.1,15.1v7.6"/>
	<line class="st0" x1="368.5" y1="-84.4" x2="379.8" y2="-84.4"/>
</g>
<g>
	<circle class="st0" cx="252.4" cy="-101.3" r="17"/>
	<line class="st0" x1="264.5" y1="-89.3" x2="280.5" y2="-73.2"/>
</g>
<g>
	<polyline class="st0" points="283.5,7.6 238.1,7.6 238.1,52.9 283.5,52.9 	"/>
	<polyline class="st0" points="272.1,18.9 283.5,30.2 272.1,41.6 	"/>
	<line class="st0" x1="283.5" y1="30.2" x2="255.1" y2="30.2"/>
</g>
</svg>
