<?xml version="1.0" encoding="utf-8"?>
<!-- Generator: Adobe Illustrator 19.1.0, SVG Export Plug-In . SVG Version: 6.00 Build 0)  -->
<svg version="1.1" id="レイヤー_1" xmlns="http://www.w3.org/2000/svg" xmlns:xlink="http://www.w3.org/1999/xlink" x="0px"
	 y="0px" viewBox="0 0 58.7 63.8" style="enable-background:new 0 0 58.7 63.8;" xml:space="preserve">
<style type="text/css">
	.st0{fill:none;stroke:#000000;stroke-width:2;stroke-linecap:round;stroke-linejoin:round;stroke-miterlimit:10;}
	.st1{fill:none;stroke:#000000;stroke-width:2;stroke-miterlimit:10;}
	.st2{stroke:#000000;stroke-width:2;stroke-linecap:round;stroke-linejoin:round;stroke-miterlimit:10;}
	.st3{fill:none;stroke:#000000;stroke-width:3;stroke-linecap:round;stroke-linejoin:round;stroke-miterlimit:10;}
	.st4{fill:none;stroke:#000000;stroke-width:2.5;stroke-linecap:round;stroke-linejoin:round;stroke-miterlimit:10;}
	.st5{fill:none;stroke:#000000;stroke-width:3;stroke-linecap:square;stroke-miterlimit:10;}
	.st6{fill:none;stroke:#000000;stroke-width:3;stroke-linecap:square;stroke-linejoin:bevel;stroke-miterlimit:10;}
	.st7{fill:none;stroke:#000000;stroke-width:3;stroke-miterlimit:10;}
	.st8{fill:none;stroke:#000000;stroke-width:2;stroke-linecap:square;stroke-miterlimit:10;}
	.st9{fill:#FFFFFF;stroke:#000000;stroke-width:2;stroke-linecap:square;stroke-miterlimit:10;}
	.st10{fill:#FFFFFF;stroke:#000000;stroke-width:2;stroke-linecap:round;stroke-miterlimit:10;}
	.st11{fill:none;stroke:#000000;stroke-width:2;stroke-linecap:round;stroke-miterlimit:10;}
</style>
<g>
	<path class="st0" d="M40.7-119.6h5.9c3,0,5.5,2.5,5.5,5.5v45.7c0,3-2.5,5.5-5.5,5.5H0.8c-3,0-5.5-2.5-5.5-5.5v-45.7
		c0-3,2.5-5.5,5.5-5.5h5.9"/>
	<line class="st0" x1="18" y1="-119.6" x2="29.3" y2="-119.6"/>
	<line class="st1" x1="-4.7" y1="-105.6" x2="52" y2="-105.6"/>
	<line class="st2" x1="12.3" y1="-125.3" x2="12.3" y2="-113.9"/>
	<line class="st2" x1="35" y1="-125.3" x2="35" y2="-113.9"/>
	<polyline class="st0" points="22.3,-88.4 25.1,-91.3 25.1,-77.1 	"/>
</g>
<g>
	<path class="st0" d="M31.9,57.7H6c-2.8,0-5-2.2-5-5V11.1c0-2.8,2.2-5,5-5h5.3"/>
	<path class="st0" d="M42.2,6.2h5.3c2.8,0,5,2.2,5,5v25.9"/>
	<line class="st0" x1="21.6" y1="6.2" x2="31.9" y2="6.2"/>
	<line class="st1" x1="1" y1="21.6" x2="52.5" y2="21.6"/>
	<line class="st2" x1="16.5" y1="1" x2="16.5" y2="11.3"/>
	<line class="st2" x1="37.1" y1="1" x2="37.1" y2="11.3"/>
	<g>
		<line class="st2" x1="47.4" y1="49.1" x2="47.4" y2="56"/>
		<line class="st2" x1="44" y1="52.5" x2="50.8" y2="52.5"/>
	</g>
	<polyline class="st0" points="25.5,34.5 28.1,31.9 28.1,44.8 	"/>
	<circle class="st0" cx="47.4" cy="52.5" r="10.3"/>
</g>
<circle class="st3" cx="860.1" cy="346.7" r="17"/>
<path class="st3" d="M831.8,411.8V392c0-15.7,12.7-28.3,28.3-28.3c15.7,0,28.3,12.7,28.3,28.3l0,19.8"/>
<circle class="st3" cx="894.2" cy="358" r="10.2"/>
<path class="st3" d="M888.5,369.2c1.8-0.6,3.7-1,5.7-1c9.4,0,17,7.6,17,17v3.4"/>
<path class="st3" d="M883.3,372.1c1.5-1.3,3.3-2.2,5.2-2.9"/>
<path class="st3" d="M881.7,373.6c0.5-0.5,1-1.1,1.6-1.5"/>
<circle class="st3" cx="826.1" cy="358" r="10.2"/>
<path class="st3" d="M831.8,369.2c2.6,0.9,4.9,2.5,6.8,4.4"/>
<path class="st3" d="M809.1,388.6v-3.4c0-9.4,7.6-17,17-17c2,0,3.9,0.3,5.7,1"/>
<circle class="st3" cx="860.1" cy="360.7" r="58.5"/>
<g>
	<circle class="st0" cx="139.9" cy="-101.1" r="8.5"/>
	<path class="st0" d="M125.7-68.5v-9.9c0-7.8,6.3-14.2,14.2-14.2c7.8,0,14.2,6.3,14.2,14.2l0,9.9"/>
	<circle class="st0" cx="156.9" cy="-95.4" r="5.1"/>
	<path class="st0" d="M154.1-89.8c0.9-0.3,1.8-0.5,2.8-0.5c4.7,0,8.5,3.8,8.5,8.5v1.7"/>
	<path class="st0" d="M151.5-88.4c0.8-0.6,1.6-1.1,2.6-1.5"/>
	<path class="st0" d="M150.7-87.6c0.3-0.3,0.5-0.5,0.8-0.8"/>
	<circle class="st0" cx="122.9" cy="-95.4" r="5.1"/>
	<path class="st0" d="M125.7-89.8c1.3,0.5,2.5,1.2,3.4,2.2"/>
	<path class="st0" d="M114.4-80.1v-1.7c0-4.7,3.8-8.5,8.5-8.5c1,0,2,0.2,2.8,0.5"/>
	<circle class="st0" cx="139.9" cy="-94.1" r="29.2"/>
</g>
<g>
	<circle class="st0" cx="144.6" cy="24.9" r="8.5"/>
	<path class="st0" d="M130.4,57.5v-9.9c0-7.8,6.3-14.2,14.2-14.2c7.8,0,14.2,6.3,14.2,14.2l0,9.9"/>
	<circle class="st0" cx="144.6" cy="31.9" r="29.2"/>
</g>
<circle class="st3" cx="1015.3" cy="326.6" r="17"/>
<path class="st3" d="M986.9,391.8V372c0-15.7,12.7-28.3,28.3-28.3c15.7,0,28.3,12.7,28.3,28.3l0,19.8"/>
<circle class="st3" cx="1049.3" cy="338" r="10.2"/>
<path class="st3" d="M1043.6,349.1c1.8-0.6,3.7-1,5.7-1c9.4,0,17,7.6,17,17v3.4"/>
<path class="st3" d="M1038.5,352.1c1.5-1.3,3.3-2.2,5.2-2.9"/>
<path class="st3" d="M1036.9,353.6c0.5-0.5,1-1.1,1.6-1.5"/>
<circle class="st3" cx="981.3" cy="338" r="10.2"/>
<path class="st3" d="M987,349.2c2.6,0.9,4.9,2.5,6.8,4.4"/>
<path class="st3" d="M964.3,368.6v-3.4c0-9.4,7.6-17,17-17c2,0,3.9,0.3,5.7,1"/>
<circle cx="1031" cy="508.7" r="58.5"/>
<circle class="st4" cx="831.8" cy="506.8" r="8.5"/>
<path class="st4" d="M844.6,528c0-7-5.7-12.8-12.8-12.8c-7,0-12.8,5.7-12.8,12.8"/>
<circle class="st4" cx="848.8" cy="513.9" r="5.7"/>
<path class="st4" d="M857.3,528c0-4.7-3.8-8.5-8.5-8.5c-2.3,0-4.3,0.9-5.8,2.3"/>
<circle class="st4" cx="814.8" cy="513.9" r="5.7"/>
<path class="st4" d="M820.6,521.9c-1.5-1.4-3.6-2.3-5.8-2.3c-4.7,0-8.5,3.8-8.5,8.5"/>
<rect x="839.3" y="256.9" class="st5" width="45.4" height="45.4"/>
<line class="st5" x1="873.3" y1="251.2" x2="873.3" y2="262.5"/>
<line class="st5" x1="850.6" y1="251.2" x2="850.6" y2="262.5"/>
<polyline class="st6" points="857.1,282.7 862.8,277 862.8,294 "/>
<line class="st6" x1="839.3" y1="268.2" x2="884.6" y2="268.2"/>
<rect x="895.9" y="256.9" class="st5" width="45.4" height="45.4"/>
<line class="st5" x1="907.3" y1="268.2" x2="930" y2="268.2"/>
<line class="st5" x1="907.3" y1="279.5" x2="930" y2="279.5"/>
<line class="st5" x1="907.3" y1="290.9" x2="918.6" y2="290.9"/>
<polyline class="st5" points="998,256.9 958.3,256.9 958.3,302.2 998,302.2 "/>
<g>
	<polyline class="st5" points="986.7,268.2 998,279.5 986.7,290.9 	"/>
	<line class="st7" x1="969.7" y1="279.5" x2="998" y2="279.5"/>
</g>
<g>
	<path class="st8" d="M276.1-65.8h-40c-1.6,0-2.9-1.3-2.9-2.9v-47.1c0-1.6,1.3-2.9,2.9-2.9h40c1.6,0,2.9,1.3,2.9,2.9v47.1
		C279-67.1,277.7-65.8,276.1-65.8z"/>
	<path class="st9" d="M260.8-114.8h-9.6c-1.6,0-2.8-1.3-2.8-2.8v-2c0-1.6,1.3-2.8,2.8-2.8h9.6c1.6,0,2.8,1.3,2.8,2.8v2
		C263.7-116.1,262.4-114.8,260.8-114.8z"/>
	<line class="st10" x1="244.7" y1="-95.5" x2="267.5" y2="-95.5"/>
	<line class="st10" x1="244.7" y1="-81" x2="267.5" y2="-81"/>
</g>
<g>
	<path class="st0" d="M271.2,14.9h14.6c1.3,0,2.4,1.1,2.4,2.4v34.8c0,1.3-1.1,2.4-2.4,2.4H234c-1.3,0-2.4-1.1-2.4-2.4V17.4
		c0-1.3,1.1-2.4,2.4-2.4h14.6c0-5.7,5.7-5.7,5.7-5.7s5.7,0,11.3,0S271.2,14.9,271.2,14.9z"/>
	<circle class="st11" cx="259.9" cy="34.8" r="8.5"/>
</g>
<g>
	<path class="st0" d="M508.7-65.7h-40.3c-1.4,0-2.5-1.1-2.5-2.5v-29c0-1.4,1.1-2.5,2.5-2.5h40.3c1.4,0,2.5,1.1,2.5,2.5v29
		C511.2-66.9,510.1-65.7,508.7-65.7z"/>
	<path class="st0" d="M473.4-99.8v-7.6c0-8.3,6.8-15.1,15.1-15.1s15.1,6.8,15.1,15.1v7.6"/>
	<line class="st0" x1="482.9" y1="-82.8" x2="494.2" y2="-82.8"/>
</g>
<g>
	<circle class="st0" cx="366.8" cy="-99.6" r="17"/>
	<line class="st0" x1="378.8" y1="-87.6" x2="394.9" y2="-71.6"/>
</g>
<g>
	<polyline class="st0" points="397.9,9.2 352.5,9.2 352.5,54.6 397.9,54.6 	"/>
	<polyline class="st0" points="386.5,20.6 397.9,31.9 386.5,43.3 	"/>
	<line class="st0" x1="397.9" y1="31.9" x2="369.5" y2="31.9"/>
</g>
</svg>
