<?xml version="1.0" encoding="utf-8"?>
<!-- Generator: Adobe Illustrator 19.1.0, SVG Export Plug-In . SVG Version: 6.00 Build 0)  -->
<svg version="1.1" id="レイヤー_1" xmlns="http://www.w3.org/2000/svg" xmlns:xlink="http://www.w3.org/1999/xlink" x="0px"
	 y="0px" viewBox="0 0 58.7 64.4" style="enable-background:new 0 0 58.7 64.4;" xml:space="preserve">
<style type="text/css">
	.st0{fill:none;stroke:#000000;stroke-width:2;stroke-linecap:round;stroke-linejoin:round;stroke-miterlimit:10;}
	.st1{fill:none;stroke:#000000;stroke-width:2;stroke-miterlimit:10;}
	.st2{stroke:#000000;stroke-width:2;stroke-linecap:round;stroke-linejoin:round;stroke-miterlimit:10;}
	.st3{fill:none;stroke:#000000;stroke-width:3;stroke-linecap:round;stroke-linejoin:round;stroke-miterlimit:10;}
	.st4{fill:none;stroke:#000000;stroke-width:2.5;stroke-linecap:round;stroke-linejoin:round;stroke-miterlimit:10;}
	.st5{fill:none;stroke:#000000;stroke-width:3;stroke-linecap:square;stroke-miterlimit:10;}
	.st6{fill:none;stroke:#000000;stroke-width:3;stroke-linecap:square;stroke-linejoin:bevel;stroke-miterlimit:10;}
	.st7{fill:none;stroke:#000000;stroke-width:3;stroke-miterlimit:10;}
	.st8{fill:none;stroke:#000000;stroke-width:2;stroke-linecap:square;stroke-miterlimit:10;}
	.st9{fill:#FFFFFF;stroke:#000000;stroke-width:2;stroke-linecap:square;stroke-miterlimit:10;}
	.st10{fill:#FFFFFF;stroke:#000000;stroke-width:2;stroke-linecap:round;stroke-miterlimit:10;}
	.st11{fill:none;stroke:#000000;stroke-width:2;stroke-linecap:round;stroke-miterlimit:10;}
</style>
<g>
	<path class="st0" d="M46.4,6.7h5.9c3,0,5.5,2.5,5.5,5.5v45.7c0,3-2.5,5.5-5.5,5.5H6.5c-3,0-5.5-2.5-5.5-5.5V12.2
		c0-3,2.5-5.5,5.5-5.5h5.9"/>
	<line class="st0" x1="23.7" y1="6.7" x2="35" y2="6.7"/>
	<line class="st1" x1="1" y1="20.7" x2="57.7" y2="20.7"/>
	<line class="st2" x1="18" y1="1" x2="18" y2="12.3"/>
	<line class="st2" x1="40.7" y1="1" x2="40.7" y2="12.3"/>
	<polyline class="st0" points="27.9,37.9 30.8,35 30.8,49.2 	"/>
</g>
<g>
	<path class="st0" d="M37.6,184H11.7c-2.8,0-5-2.2-5-5v-41.6c0-2.8,2.2-5,5-5H17"/>
	<path class="st0" d="M47.9,132.4h5.3c2.8,0,5,2.2,5,5v25.9"/>
	<line class="st0" x1="27.3" y1="132.4" x2="37.6" y2="132.4"/>
	<line class="st1" x1="6.7" y1="147.9" x2="58.2" y2="147.9"/>
	<line class="st2" x1="22.1" y1="127.3" x2="22.1" y2="137.6"/>
	<line class="st2" x1="42.7" y1="127.3" x2="42.7" y2="137.6"/>
	<g>
		<line class="st2" x1="53.1" y1="175.4" x2="53.1" y2="182.2"/>
		<line class="st2" x1="49.6" y1="178.8" x2="56.5" y2="178.8"/>
	</g>
	<polyline class="st0" points="31.2,160.8 33.7,158.2 33.7,171.1 	"/>
	<circle class="st0" cx="53.1" cy="178.8" r="10.3"/>
</g>
<circle class="st3" cx="865.8" cy="473" r="17"/>
<path class="st3" d="M837.5,538.1v-19.8c0-15.7,12.7-28.3,28.3-28.3c15.7,0,28.3,12.7,28.3,28.3l0,19.8"/>
<circle class="st3" cx="899.8" cy="484.3" r="10.2"/>
<path class="st3" d="M894.2,495.5c1.8-0.6,3.7-1,5.7-1c9.4,0,17,7.6,17,17v3.4"/>
<path class="st3" d="M889,498.4c1.5-1.3,3.3-2.2,5.2-2.9"/>
<path class="st3" d="M887.4,499.9c0.5-0.5,1-1.1,1.6-1.5"/>
<circle class="st3" cx="831.8" cy="484.3" r="10.2"/>
<path class="st3" d="M837.5,495.5c2.6,0.9,4.9,2.5,6.8,4.4"/>
<path class="st3" d="M814.8,514.9v-3.4c0-9.4,7.6-17,17-17c2,0,3.9,0.3,5.7,1"/>
<circle class="st3" cx="865.8" cy="487" r="58.5"/>
<g>
	<circle class="st0" cx="145.6" cy="25.2" r="8.5"/>
	<path class="st0" d="M131.4,57.8v-9.9c0-7.8,6.3-14.2,14.2-14.2c7.8,0,14.2,6.3,14.2,14.2l0,9.9"/>
	<circle class="st0" cx="162.6" cy="30.8" r="5.1"/>
	<path class="st0" d="M159.7,36.4c0.9-0.3,1.8-0.5,2.8-0.5c4.7,0,8.5,3.8,8.5,8.5v1.7"/>
	<path class="st0" d="M157.2,37.9c0.8-0.6,1.6-1.1,2.6-1.5"/>
	<path class="st0" d="M156.4,38.7c0.3-0.3,0.5-0.5,0.8-0.8"/>
	<circle class="st0" cx="128.6" cy="30.8" r="5.1"/>
	<path class="st0" d="M131.4,36.4c1.3,0.5,2.5,1.2,3.4,2.2"/>
	<path class="st0" d="M120.1,46.2v-1.7c0-4.7,3.8-8.5,8.5-8.5c1,0,2,0.2,2.8,0.5"/>
	<circle class="st0" cx="145.6" cy="32.2" r="29.2"/>
</g>
<g>
	<circle class="st0" cx="150.3" cy="151.2" r="8.5"/>
	<path class="st0" d="M136.1,183.8v-9.9c0-7.8,6.3-14.2,14.2-14.2c7.8,0,14.2,6.3,14.2,14.2l0,9.9"/>
	<circle class="st0" cx="150.3" cy="158.2" r="29.2"/>
</g>
<circle class="st3" cx="1021" cy="452.9" r="17"/>
<path class="st3" d="M992.6,518.1v-19.8c0-15.7,12.7-28.3,28.3-28.3c15.7,0,28.3,12.7,28.3,28.3l0,19.8"/>
<circle class="st3" cx="1055" cy="464.3" r="10.2"/>
<path class="st3" d="M1049.3,475.4c1.8-0.6,3.7-1,5.7-1c9.4,0,17,7.6,17,17v3.4"/>
<path class="st3" d="M1044.2,478.3c1.5-1.3,3.3-2.2,5.2-2.9"/>
<path class="st3" d="M1042.5,479.9c0.5-0.5,1-1.1,1.6-1.5"/>
<circle class="st3" cx="986.9" cy="464.3" r="10.2"/>
<path class="st3" d="M992.6,475.4c2.6,0.9,4.9,2.5,6.8,4.4"/>
<path class="st3" d="M969.9,494.9v-3.4c0-9.4,7.6-17,17-17c2,0,3.9,0.3,5.7,1"/>
<circle cx="1036.7" cy="635" r="58.5"/>
<circle class="st4" cx="837.5" cy="633.1" r="8.5"/>
<path class="st4" d="M850.2,654.3c0-7-5.7-12.8-12.8-12.8c-7,0-12.8,5.7-12.8,12.8"/>
<circle class="st4" cx="854.5" cy="640.1" r="5.7"/>
<path class="st4" d="M863,654.3c0-4.7-3.8-8.5-8.5-8.5c-2.3,0-4.3,0.9-5.8,2.3"/>
<circle class="st4" cx="820.5" cy="640.1" r="5.7"/>
<path class="st4" d="M826.3,648.1c-1.5-1.4-3.6-2.3-5.8-2.3c-4.7,0-8.5,3.8-8.5,8.5"/>
<rect x="844.9" y="383.1" class="st5" width="45.4" height="45.4"/>
<line class="st5" x1="878.9" y1="377.5" x2="878.9" y2="388.8"/>
<line class="st5" x1="856.3" y1="377.5" x2="856.3" y2="388.8"/>
<polyline class="st6" points="862.8,409 868.4,403.3 868.4,420.3 "/>
<line class="st6" x1="844.9" y1="394.5" x2="890.3" y2="394.5"/>
<rect x="901.6" y="383.1" class="st5" width="45.4" height="45.4"/>
<line class="st5" x1="913" y1="394.5" x2="935.6" y2="394.5"/>
<line class="st5" x1="913" y1="405.8" x2="935.6" y2="405.8"/>
<line class="st5" x1="913" y1="417.1" x2="924.3" y2="417.1"/>
<polyline class="st5" points="1003.7,383.1 964,383.1 964,428.5 1003.7,428.5 "/>
<g>
	<polyline class="st5" points="992.3,394.5 1003.7,405.8 992.3,417.1 	"/>
	<line class="st7" x1="975.3" y1="405.8" x2="1003.7" y2="405.8"/>
</g>
<g>
	<path class="st8" d="M281.8,60.5h-40c-1.6,0-2.9-1.3-2.9-2.9V10.6c0-1.6,1.3-2.9,2.9-2.9h40c1.6,0,2.9,1.3,2.9,2.9v47.1
		C284.6,59.2,283.4,60.5,281.8,60.5z"/>
	<path class="st9" d="M266.5,11.5h-9.6c-1.6,0-2.8-1.3-2.8-2.8v-2c0-1.6,1.3-2.8,2.8-2.8h9.6c1.6,0,2.8,1.3,2.8,2.8v2
		C269.3,10.2,268.1,11.5,266.5,11.5z"/>
	<line class="st10" x1="250.4" y1="30.7" x2="273.2" y2="30.7"/>
	<line class="st10" x1="250.4" y1="45.3" x2="273.2" y2="45.3"/>
</g>
<g>
	<path class="st0" d="M276.9,141.2h14.6c1.3,0,2.4,1.1,2.4,2.4v34.8c0,1.3-1.1,2.4-2.4,2.4h-51.8c-1.3,0-2.4-1.1-2.4-2.4v-34.8
		c0-1.3,1.1-2.4,2.4-2.4h14.6c0-5.7,5.7-5.7,5.7-5.7s5.7,0,11.3,0C276.9,135.5,276.9,141.2,276.9,141.2z"/>
	<circle class="st11" cx="265.6" cy="161" r="8.5"/>
</g>
<g>
	<path class="st0" d="M514.4,60.5h-40.3c-1.4,0-2.5-1.1-2.5-2.5V29c0-1.4,1.1-2.5,2.5-2.5h40.3c1.4,0,2.5,1.1,2.5,2.5v29
		C516.9,59.4,515.8,60.5,514.4,60.5z"/>
	<path class="st0" d="M479.1,26.5V19c0-8.3,6.8-15.1,15.1-15.1c8.3,0,15.1,6.8,15.1,15.1v7.6"/>
	<line class="st0" x1="488.6" y1="43.5" x2="499.9" y2="43.5"/>
</g>
<g>
	<circle class="st0" cx="372.5" cy="26.7" r="17"/>
	<line class="st0" x1="384.5" y1="38.7" x2="400.5" y2="54.7"/>
</g>
<g>
	<polyline class="st0" points="403.5,135.5 358.2,135.5 358.2,180.9 403.5,180.9 	"/>
	<polyline class="st0" points="392.2,146.9 403.5,158.2 392.2,169.5 	"/>
	<line class="st0" x1="403.5" y1="158.2" x2="375.2" y2="158.2"/>
</g>
</svg>
